<svg xmlns="http://www.w3.org/2000/svg" viewBox="0 0 32 40" x="0px" y="0px"><title>setting</title><g><circle cx="16" cy="16" r="4.31"/><path d="M29.15,13.43l-2.22-.34a11,11,0,0,0-1.15-2.77l1.33-1.8a1,1,0,0,0-.1-1.3L24.78,5a1,1,0,0,0-1.3-.1l-1.8,1.33a11,11,0,0,0-2.77-1.15l-.34-2.22a1,1,0,0,0-1-.85H14.42a1,1,0,0,0-1,.85l-.34,2.22a11,11,0,0,0-2.77,1.15L8.52,4.88a1,1,0,0,0-1.3.1L5,7.22a1,1,0,0,0-.1,1.3l1.33,1.8a11,11,0,0,0-1.15,2.77l-2.22.34a1,1,0,0,0-.85,1v3.16a1,1,0,0,0,.85,1l2.22.34a11,11,0,0,0,1.15,2.77l-1.33,1.8a1,1,0,0,0,.1,1.3L7.22,27a1,1,0,0,0,1.3.1l1.8-1.33a11,11,0,0,0,2.77,1.15l.34,2.22a1,1,0,0,0,1,.85h3.16a1,1,0,0,0,1-.85l.34-2.22a11,11,0,0,0,2.77-1.15l1.8,1.33a1,1,0,0,0,1.3-.1L27,24.78a1,1,0,0,0,.1-1.3l-1.33-1.8a11,11,0,0,0,1.15-2.77l2.22-.34a1,1,0,0,0,.85-1V14.42A1,1,0,0,0,29.15,13.43ZM16,22.31A6.31,6.31,0,1,1,22.31,16,6.32,6.32,0,0,1,16,22.31Z"/></g><text x="0" y="47" fill="#000000" font-size="5px" font-weight="bold" font-family="'Helvetica Neue', Helvetica, Arial-Unicode, Arial, Sans-serif">Created by kendis lasman</text><text x="0" y="52" fill="#000000" font-size="5px" font-weight="bold" font-family="'Helvetica Neue', Helvetica, Arial-Unicode, Arial, Sans-serif">from the Noun Project</text></svg>