<?xml version="1.0" encoding="UTF-8" standalone="no"?>
<svg
   xmlns:dc="http://purl.org/dc/elements/1.1/"
   xmlns:cc="http://creativecommons.org/ns#"
   xmlns:rdf="http://www.w3.org/1999/02/22-rdf-syntax-ns#"
   xmlns:svg="http://www.w3.org/2000/svg"
   xmlns="http://www.w3.org/2000/svg"
   xmlns:sodipodi="http://sodipodi.sourceforge.net/DTD/sodipodi-0.dtd"
   xmlns:inkscape="http://www.inkscape.org/namespaces/inkscape"
   viewBox="0 0 27.980128 27.980127"
   x="0px"
   y="0px"
   version="1.1"
   id="svg14"
   sodipodi:docname="settings.svg"
   width="27.980127"
   height="27.980127"
   inkscape:version="1.0.2 (e86c870879, 2021-01-15)">
  <metadata
     id="metadata20">
    <rdf:RDF>
      <cc:Work
         rdf:about="">
        <dc:format>image/svg+xml</dc:format>
        <dc:type
           rdf:resource="http://purl.org/dc/dcmitype/StillImage" />
      </cc:Work>
    </rdf:RDF>
  </metadata>
  <defs
     id="defs18" />
  <sodipodi:namedview
     pagecolor="#ffffff"
     bordercolor="#666666"
     borderopacity="1"
     objecttolerance="10"
     gridtolerance="10"
     guidetolerance="10"
     inkscape:pageopacity="0"
     inkscape:pageshadow="2"
     inkscape:window-width="1920"
     inkscape:window-height="1020"
     id="namedview16"
     showgrid="false"
     inkscape:zoom="20.975"
     inkscape:cx="5.2892297"
     inkscape:cy="16.083032"
     inkscape:window-x="1280"
     inkscape:window-y="32"
     inkscape:window-maximized="1"
     inkscape:current-layer="svg14"
     inkscape:document-rotation="0" />
  <title
     id="title2">setting</title>
  <g
     id="g8"
     transform="translate(-2.0099361,-2.0099361)"
     style="fill:#808080;stroke:#000000;stroke-opacity:1;stroke-width:0;stroke-miterlimit:4;stroke-dasharray:none;stroke-linecap:butt">
    <circle
       cx="16"
       cy="16"
       r="4.3099999"
       id="circle4"
       style="fill:#808080;stroke:#000000;stroke-opacity:1;stroke-width:0;stroke-miterlimit:4;stroke-dasharray:none;stroke-linecap:butt" />
    <path
       d="m 29.15,13.43 -2.22,-0.34 a 11,11 0 0 0 -1.15,-2.77 l 1.33,-1.8 a 1,1 0 0 0 -0.1,-1.3 L 24.78,5 a 1,1 0 0 0 -1.3,-0.1 l -1.8,1.33 A 11,11 0 0 0 18.91,5.08 L 18.57,2.86 a 1,1 0 0 0 -1,-0.85 h -3.15 a 1,1 0 0 0 -1,0.85 L 13.08,5.08 A 11,11 0 0 0 10.31,6.23 L 8.52,4.88 a 1,1 0 0 0 -1.3,0.1 L 5,7.22 a 1,1 0 0 0 -0.1,1.3 l 1.33,1.8 a 11,11 0 0 0 -1.15,2.77 l -2.22,0.34 a 1,1 0 0 0 -0.85,1 v 3.16 a 1,1 0 0 0 0.85,1 l 2.22,0.34 A 11,11 0 0 0 6.23,21.7 L 4.9,23.5 A 1,1 0 0 0 5,24.8 L 7.22,27 a 1,1 0 0 0 1.3,0.1 l 1.8,-1.33 a 11,11 0 0 0 2.77,1.15 l 0.34,2.22 a 1,1 0 0 0 1,0.85 h 3.16 a 1,1 0 0 0 1,-0.85 l 0.34,-2.22 a 11,11 0 0 0 2.77,-1.15 l 1.8,1.33 A 1,1 0 0 0 24.8,27 L 27,24.78 a 1,1 0 0 0 0.1,-1.3 l -1.33,-1.8 a 11,11 0 0 0 1.15,-2.77 l 2.22,-0.34 a 1,1 0 0 0 0.85,-1 V 14.42 A 1,1 0 0 0 29.15,13.43 Z M 16,22.31 A 6.31,6.31 0 1 1 22.31,16 6.32,6.32 0 0 1 16,22.31 Z"
       id="path6"
       style="fill:#808080;stroke:#000000;stroke-opacity:1;stroke-width:0;stroke-miterlimit:4;stroke-dasharray:none;stroke-linecap:butt" />
  </g>
</svg>
